# Blender v2.92.0 OBJ File: 'newWall.blend'
# www.blender.org
mtllib newWall.mtl
o Plane_Plane.001
v -10.000000 0.000000 1.500000
v 10.000000 0.000000 1.500000
v -7.000000 10.000000 1.400000
v -5.000000 10.000000 1.400000
v -3.000000 10.000000 1.400000
v -1.000000 10.000000 1.400000
v 1.000000 10.000000 1.400000
v 3.000000 10.000000 1.400000
v 5.000000 10.000000 1.400000
v 7.000000 10.000000 1.400000
v 9.000000 10.000000 1.400000
v 10.000000 1.000000 1.500000
v 10.000000 2.000000 1.000000
v 10.000000 8.000000 1.000000
v 10.000000 9.000000 1.400000
v -10.000000 9.000000 1.400000
v -10.000000 8.000000 1.000000
v -10.000000 2.000000 1.000000
v -10.000000 1.000000 1.500000
v -9.000000 12.000000 1.400000
v -7.000000 12.000000 1.400000
v -5.000000 12.000000 1.400000
v -3.000000 12.000000 1.400000
v -1.000000 12.000000 1.400000
v 1.000000 12.000000 1.400000
v 3.000000 12.000000 1.400000
v 5.000000 12.000000 1.400000
v 7.000000 12.000000 1.400000
v 9.000000 12.000000 1.400000
v 8.000000 10.000000 1.400000
v 10.000000 10.000000 1.400000
v 8.000000 10.000000 1.400000
v -10.000000 10.000000 1.400000
v -8.333333 12.300000 1.400000
v -7.666667 12.300000 1.400000
v -4.333333 12.300000 1.400000
v -3.666667 12.300000 1.400000
v -0.333333 12.300000 1.400000
v 0.333333 12.300000 1.400000
v 3.666667 12.300000 1.400000
v 4.333333 12.300000 1.400000
v 7.666667 12.300000 1.400000
v 8.333334 12.300000 1.400000
v 10.000000 8.000000 -1.000000
v 10.000000 2.000000 -1.000000
v -10.000000 2.000000 -1.000000
v -10.000000 8.000000 -1.000000
v 10.000000 10.000000 -1.400000
v 9.000000 10.000000 -1.400000
v 7.000000 10.000000 -1.400000
v 5.000000 10.000000 -1.400000
v 3.000000 10.000000 -1.400000
v 1.000000 10.000000 -1.400000
v -1.000000 10.000000 -1.400000
v -3.000000 10.000000 -1.400000
v -5.000000 10.000000 -1.400000
v -7.000000 10.000000 -1.400000
v -7.000000 12.000000 -1.400000
v -10.000000 10.000000 -1.400000
v -9.000000 12.000000 -1.400000
v 1.000000 12.000000 -1.400000
v -8.333333 12.300000 -1.400000
v 7.666667 12.300000 -1.400000
v 7.000000 12.000000 -1.400000
v 3.666667 12.300000 -1.400000
v 3.000000 12.000000 -1.400000
v -0.333333 12.300000 -1.400000
v -1.000000 12.000000 -1.400000
v -4.333333 12.300000 -1.400000
v -5.000000 12.000000 -1.400000
v 9.000000 12.000000 -1.400000
v 5.000000 12.000000 -1.400000
v -3.000000 12.000000 -1.400000
v -7.666667 12.300000 -1.400000
v 8.333334 12.300000 -1.400000
v 4.333333 12.300000 -1.400000
v 0.333333 12.300000 -1.400000
v -3.666667 12.300000 -1.400000
v -10.000000 9.000000 -1.400000
v 10.000000 9.000000 -1.400000
v 10.000000 0.000000 -1.500000
v -10.000000 0.000000 -1.500000
v 10.000000 1.000000 -1.500000
v -10.000000 1.000000 -1.500000
v -9.000000 10.000000 -1.400000
v -9.000000 10.000000 1.400000
vt -0.000543 0.000000
vt 0.998186 0.000000
vt 0.998186 0.073581
vt -0.000543 0.073581
vt -0.000543 0.074557
vt 0.999162 0.074557
vt 0.999162 0.148422
vt -0.000543 0.148422
vt -0.000543 0.592837
vt 0.997209 0.592837
vt 0.997209 0.666191
vt -0.000543 0.666191
vt 0.999162 0.149399
vt 0.999162 0.590884
vt -0.002496 0.590884
vt -0.002496 0.149399
vt 0.176599 0.900203
vt 0.000000 0.900203
vt 0.000000 0.877725
vt 0.176599 0.877725
vt 0.183958 0.909383
vt 0.183958 0.732783
vt 0.206436 0.732783
vt 0.206436 0.909383
vt 0.831234 0.176599
vt 0.831234 0.000000
vt 0.853712 0.000000
vt 0.853712 0.176599
vt 0.831234 0.529798
vt 0.831234 0.353199
vt 0.853712 0.353199
vt 0.853712 0.529798
vt 0.831234 0.353199
vt 0.831234 0.176599
vt 0.853712 0.176599
vt 0.853712 0.353199
vt 0.684677 0.176599
vt 0.684677 0.353199
vt 0.662248 0.353199
vt 0.662248 0.176599
vt 0.997209 0.739772
vt -0.000543 0.739772
vt 0.791165 0.976073
vt 0.791165 0.742100
vt 1.000818 0.742100
vt 1.000818 0.976073
vt 0.594449 0.976368
vt 0.594449 0.741620
vt 0.804490 0.741620
vt 0.804490 0.976368
vt 0.504363 0.837129
vt 0.519079 0.837129
vt 0.514174 0.859203
vt 0.509268 0.859203
vt 0.197743 0.976148
vt 0.197743 0.741013
vt 0.408399 0.741013
vt 0.408399 0.976148
vt 0.419099 0.740921
vt 0.207488 0.962846
vt 0.137451 0.962846
vt 0.001509 0.740921
vt 0.924439 0.706398
vt 0.924439 0.529798
vt 0.929345 0.529798
vt 0.929345 0.706398
vt 0.684677 0.000000
vt 0.684677 0.176599
vt 0.662248 0.176599
vt 0.662248 0.000000
vt 0.654890 0.912465
vt 0.654889 0.735866
vt 0.659795 0.735866
vt 0.659795 0.912465
vt 0.684677 0.353199
vt 0.684677 0.529798
vt 0.662248 0.529798
vt 0.662248 0.353199
vt 0.919534 0.706398
vt 0.919534 0.529798
vt 0.924439 0.529798
vt 0.924439 0.706398
vt 0.684677 0.706398
vt 0.684677 0.882997
vt 0.662248 0.882997
vt 0.662248 0.706398
vt 0.924439 0.882997
vt 0.924439 0.706398
vt 0.929345 0.706398
vt 0.929345 0.882997
vt 0.919534 0.882997
vt 0.919534 0.706398
vt 0.924439 0.706398
vt 0.924439 0.882997
vt 0.684677 0.529798
vt 0.684677 0.706398
vt 0.662248 0.706398
vt 0.662248 0.529798
vt 0.346887 0.872723
vt 0.341981 0.850648
vt 0.356698 0.850648
vt 0.351793 0.872723
vt 0.589278 0.848461
vt 0.584373 0.826386
vt 0.599089 0.826386
vt 0.594184 0.848461
vt 0.871641 0.877758
vt 0.866735 0.855683
vt 0.881452 0.855683
vt 0.876547 0.877758
vt 0.395461 0.741124
vt 0.605890 0.741124
vt 0.605890 0.975871
vt 0.395461 0.975871
vt 0.000519 0.074358
vt 0.999518 0.074358
vt 0.999518 0.147941
vt 0.000519 0.147941
vt 0.998743 0.148716
vt 0.998743 0.590215
vt -0.001806 0.590215
vt -0.001806 0.148716
vt 0.997968 0.663023
vt -0.001031 0.663023
vt -0.001031 0.589440
vt 0.997968 0.589440
vt 0.960000 0.860000
vt 0.980000 0.860000
vt 0.973333 0.889999
vt 0.966667 0.889999
vt 0.940000 0.679999
vt 0.960000 0.679999
vt 0.953333 0.709999
vt 0.946667 0.709999
vt 0.960000 0.630000
vt 0.980000 0.630000
vt 0.973333 0.660000
vt 0.966667 0.660000
vt 0.940000 0.910000
vt 0.960000 0.910000
vt 0.953333 0.940000
vt 0.946667 0.940000
vt 0.960000 0.400000
vt 0.980000 0.400000
vt 0.973333 0.429999
vt 0.966667 0.429999
vt 0.998743 0.000000
vt 0.998743 0.073583
vt 0.001294 0.073583
vt 0.001294 0.000000
vt 0.300000 0.560000
vt 0.500000 0.560000
vt 0.500000 0.840000
vt 0.300000 0.840000
vt 0.700000 0.840000
vt 0.500000 0.840000
vt 0.500000 0.560000
vt 0.700000 0.560000
vt 0.700000 0.000000
vt 0.900000 0.000000
vt 0.900000 0.280000
vt 0.700000 0.280000
vt 0.900000 0.280000
vt 0.900000 0.560000
vt 0.700000 0.560000
vt 0.700000 0.280000
vt 0.900000 0.560000
vt 0.900000 0.840000
vt 0.700000 0.840000
vt 0.700000 0.560000
vt 0.700000 0.560000
vt 0.500000 0.560000
vt 0.500000 0.280000
vt 0.700000 0.280000
vt 0.500000 0.280000
vt 0.500000 0.000000
vt 0.700000 0.000000
vt 0.700000 0.280000
vt 0.300000 0.560000
vt 0.300000 0.280000
vt 0.500000 0.280000
vt 0.500000 0.560000
vt 0.500000 0.000000
vt 0.500000 0.280000
vt 0.300000 0.280000
vt 0.300000 0.000000
vt 0.787928 0.970839
vt 0.787928 0.742160
vt 0.997827 0.742160
vt 0.997827 0.970839
vt 0.588881 0.972211
vt 0.588881 0.741983
vt 0.798005 0.741983
vt 0.798005 0.972211
vt 0.600202 0.974144
vt 0.391078 0.974144
vt 0.391078 0.741590
vt 0.600202 0.741590
vt 0.196681 0.974333
vt 0.196681 0.740229
vt 0.407355 0.740229
vt 0.407355 0.974333
vt 0.210736 0.972797
vt 0.000062 0.972797
vt 0.000062 0.739468
vt 0.210736 0.739468
vt 0.300000 0.100000
vt 0.250000 0.200000
vt 0.250000 0.800000
vt 0.290000 0.900000
vt 0.290000 1.000000
vt 0.010000 1.000000
vt 0.010000 0.900000
vt 0.050000 0.800000
vt 0.050000 0.200000
vt 0.000000 0.100000
vt 0.000000 0.000000
vt 0.300000 0.000000
vt -0.001513 0.589264
vt -0.001513 0.149594
vt 0.998388 0.149594
vt 0.998388 0.589264
vt 0.998843 0.663102
vt 0.998843 0.763103
vt -0.001058 0.763103
vt -0.001058 0.663102
vt 0.515082 0.735866
vt 0.693267 0.738982
vt 0.701587 0.886061
vt 0.515082 0.883032
vt 0.000000 0.000000
vt 0.300000 0.000000
vt 0.300000 0.100000
vt 0.250000 0.200000
vt 0.250000 0.800000
vt 0.290000 0.900000
vt 0.290000 1.000000
vt 0.010000 1.000000
vt 0.010000 0.900000
vt 0.050000 0.800000
vt 0.050000 0.200000
vt 0.000000 0.100000
vt 0.212286 0.740994
vt 0.212286 0.976648
vt 0.000837 0.976648
vt 0.000837 0.740994
vt 0.300000 0.560000
vt 0.300000 0.280000
vt 0.500000 0.280000
vt 0.500000 0.560000
vn 0.0000 0.0000 1.0000
vn 0.0000 0.4472 0.8944
vn 0.0000 -0.3714 0.9285
vn -0.4104 0.9119 0.0000
vn 0.4104 0.9119 0.0000
vn 0.0000 1.0000 0.0000
vn 0.0000 0.4472 -0.8944
vn 0.0000 0.0000 -1.0000
vn 0.0000 -0.3714 -0.9285
vn 1.0000 0.0000 0.0000
vn -1.0000 0.0000 0.0000
vn 0.0000 -1.0000 0.0000
usemtl Material.001
s off
f 1/1/1 2/2/1 12/3/1 19/4/1
f 19/5/2 12/6/2 13/7/2 18/8/2
f 17/9/3 14/10/3 15/11/3 16/12/3
f 13/13/1 14/14/1 17/15/1 18/16/1
f 34/17/4 62/18/4 60/19/4 20/20/4
f 42/21/4 63/22/4 64/23/4 28/24/4
f 36/25/4 69/26/4 70/27/4 22/28/4
f 38/29/4 67/30/4 68/31/4 24/32/4
f 40/33/4 65/34/4 66/35/4 26/36/4
f 21/37/5 58/38/5 74/39/5 35/40/5
f 16/12/1 15/11/1 31/41/1 33/42/1
f 28/43/1 10/44/1 11/45/1 29/46/1
f 26/47/1 8/48/1 9/49/1 27/50/1
f 24/51/1 25/52/1 39/53/1 38/54/1
f 22/55/1 4/56/1 5/57/1 23/58/1
f 21/59/1 35/60/1 34/61/1 20/62/1
f 43/63/6 75/64/6 63/65/6 42/66/6
f 27/67/5 72/68/5 76/69/5 41/70/5
f 41/71/6 76/72/6 65/73/6 40/74/6
f 25/75/5 61/76/5 77/77/5 39/78/5
f 39/79/6 77/80/6 67/81/6 38/82/6
f 23/83/5 73/84/5 78/85/5 37/86/5
f 37/87/6 78/88/6 69/89/6 36/90/6
f 35/91/6 74/92/6 62/93/6 34/94/6
f 29/95/5 71/96/5 75/97/5 43/98/5
f 36/99/1 22/100/1 23/101/1 37/102/1
f 40/103/1 26/104/1 27/105/1 41/106/1
f 42/107/1 28/108/1 29/109/1 43/110/1
f 6/111/1 7/112/1 25/113/1 24/114/1
f 83/115/7 84/116/7 46/117/7 45/118/7
f 46/119/8 47/120/8 44/121/8 45/122/8
f 79/123/9 80/124/9 44/125/9 47/126/9
f 71/127/8 64/128/8 63/129/8 75/130/8
f 72/131/8 66/132/8 65/133/8 76/134/8
f 61/135/8 68/136/8 67/137/8 77/138/8
f 73/139/8 70/140/8 69/141/8 78/142/8
f 58/143/8 60/144/8 62/145/8 74/146/8
f 82/147/8 84/148/8 83/149/8 81/150/8
f 27/151/10 9/152/10 51/153/10 72/154/10
f 8/155/11 26/156/11 66/157/11 52/158/11
f 25/159/10 7/160/10 53/161/10 61/162/10
f 5/163/10 55/164/10 73/165/10 23/166/10
f 3/167/10 57/168/10 58/169/10 21/170/10
f 4/171/11 22/172/11 70/173/11 56/174/11
f 24/175/11 68/176/11 54/177/11 6/178/11
f 28/179/11 64/180/11 50/181/11 10/182/11
f 11/183/10 49/184/10 71/185/10 29/186/10
f 71/187/8 49/188/8 50/189/8 64/190/8
f 72/191/8 51/192/8 52/193/8 66/194/8
f 68/195/8 61/196/8 53/197/8 54/198/8
f 73/199/8 55/200/8 56/201/8 70/202/8
f 60/203/8 58/204/8 57/205/8 85/206/8
f 19/207/11 18/208/11 17/209/11 16/210/11 33/211/11 59/212/11 79/213/11 47/214/11 46/215/11 84/216/11 82/217/11 1/218/11
f 31/219/6 48/220/6 59/221/6 33/222/6
f 79/223/8 59/224/8 48/225/8 80/226/8
f 1/227/12 82/228/12 81/229/12 2/230/12
f 2/231/10 81/232/10 83/233/10 45/234/10 44/235/10 80/236/10 48/237/10 31/238/10 15/239/10 14/240/10 13/241/10 12/242/10
f 3/243/1 21/244/1 20/245/1 86/246/1
f 20/247/11 60/248/11 85/249/11 86/250/11
l 11 30
l 11 32
l 56 57
