# Blender v2.92.0 OBJ File: 'Button.blend'
# www.blender.org
mtllib Button.mtl
o Plane_Plane.006
v 1.000000 3.497798 0.497798
v 1.000000 1.497798 0.497798
v -1.000000 3.497798 0.497798
v -1.000000 1.497798 0.497798
v -1.000000 3.497798 -0.497797
v 1.000000 3.497798 -0.497798
v 1.000000 1.497798 -0.497798
v -1.000000 1.497798 -0.497797
vt 0.333333 1.000000
vt 0.333333 0.000000
vt 0.870370 0.000000
vt 0.870370 1.000000
vt 0.000000 0.000000
vt 1.000000 0.000000
vt 1.000000 1.000000
vt 0.000000 1.000000
vt 0.944445 0.497798
vt 0.407407 0.497798
vt 0.407407 0.000000
vt 0.944445 0.000000
vt 1.018519 0.497798
vt 0.481482 0.497798
vt 0.481482 0.000000
vt 1.018519 0.000000
vt 0.444444 0.000000
vt 0.981482 0.000000
vt 0.981482 0.497798
vt 0.444444 0.497798
vt 0.370370 0.000000
vt 0.907407 0.000000
vt 0.907407 0.497798
vt 0.370370 0.497798
vn 0.0000 0.0000 1.0000
vn -0.0000 0.0000 -1.0000
vn 1.0000 0.0000 0.0000
vn 0.0000 -1.0000 0.0000
vn 0.0000 1.0000 0.0000
vn -1.0000 0.0000 0.0000
usemtl Material.005
s off
f 1/1/1 3/2/1 4/3/1 2/4/1
f 6/5/2 7/6/2 8/7/2 5/8/2
f 1/9/3 2/10/3 7/11/3 6/12/3
f 2/13/4 4/14/4 8/15/4 7/16/4
f 3/17/5 1/18/5 6/19/5 5/20/5
f 4/21/6 3/22/6 5/23/6 8/24/6
