# Blender v2.92.0 OBJ File: 'Button.blend'
# www.blender.org
mtllib ButtonBase.mtl
o Plane_Plane.007
v -1.300000 1.200000 -0.000000
v 1.300000 1.200000 -0.000000
v -1.300000 3.800000 0.000000
v 1.300000 3.800000 0.000000
v -1.300000 3.800000 1.000000
v -1.300000 1.200000 1.000000
v 1.300000 1.200000 1.000000
v 1.300000 3.800000 1.000000
vt 0.370370 0.000000
vt 0.907407 0.000000
vt 0.907407 1.000000
vt 0.370370 1.000000
vt 0.333333 1.000000
vt 0.333333 0.000000
vt 0.870370 0.000000
vt 0.870370 1.000000
vt 0.964388 0.000000
vt 0.964388 1.000000
vt 0.450142 1.000000
vt 0.450142 0.000000
vt 0.921652 0.000000
vt 0.921652 1.000000
vt 0.407407 1.000000
vt 0.407407 0.000000
vt 0.935897 0.000000
vt 0.935897 1.000000
vt 0.421652 1.000000
vt 0.421652 0.000000
vt 0.950143 0.000000
vt 0.950143 1.000000
vt 0.435897 1.000000
vt 0.435897 0.000000
vn 0.0000 0.0000 -1.0000
vn 0.0000 -0.0000 1.0000
vn 0.0000 -1.0000 0.0000
vn 1.0000 0.0000 0.0000
vn -1.0000 0.0000 0.0000
vn 0.0000 1.0000 0.0000
usemtl Material.007
s off
f 1/1/1 3/2/1 4/3/1 2/4/1
f 6/5/2 7/6/2 8/7/2 5/8/2
f 1/9/3 2/10/3 7/11/3 6/12/3
f 2/13/4 4/14/4 8/15/4 7/16/4
f 3/17/5 1/18/5 6/19/5 5/20/5
f 4/21/6 3/22/6 5/23/6 8/24/6
