# Blender v2.92.0 OBJ File: ''
# www.blender.org
mtllib 0.mtl
o Text_Text.001
v 0.249524 0.013175 -1.037695
v 0.247716 0.064176 -1.037695
v 0.242394 0.112017 -1.037695
v 0.233711 0.156456 -1.037695
v 0.221820 0.197249 -1.037695
v 0.206873 0.234153 -1.037695
v 0.189024 0.266925 -1.037695
v 0.168424 0.295322 -1.037695
v 0.145227 0.319101 -1.037695
v 0.119586 0.338018 -1.037695
v 0.091653 0.351832 -1.037695
v 0.061581 0.360299 -1.037695
v 0.029524 0.363175 -1.037695
v -0.002534 0.360298 -1.037695
v -0.032606 0.351832 -1.037695
v -0.060539 0.338018 -1.037695
v -0.086180 0.319101 -1.037695
v -0.109377 0.295322 -1.037695
v -0.129976 0.266925 -1.037695
v -0.147826 0.234153 -1.037695
v -0.162773 0.197249 -1.037695
v -0.174664 0.156456 -1.037695
v -0.183347 0.112017 -1.037695
v -0.188669 0.064176 -1.037695
v -0.190476 0.013175 -1.037695
v -0.188669 -0.037827 -1.037695
v -0.183347 -0.085668 -1.037695
v -0.174664 -0.130107 -1.037695
v -0.162773 -0.170899 -1.037695
v -0.147826 -0.207803 -1.037695
v -0.129976 -0.240575 -1.037695
v -0.109377 -0.268972 -1.037695
v -0.086180 -0.292751 -1.037695
v -0.060539 -0.311669 -1.037695
v -0.032606 -0.325483 -1.037695
v -0.002534 -0.333949 -1.037695
v 0.029524 -0.336825 -1.037695
v 0.061581 -0.333949 -1.037695
v 0.091653 -0.325483 -1.037695
v 0.119586 -0.311669 -1.037695
v 0.145227 -0.292751 -1.037695
v 0.168424 -0.268972 -1.037695
v 0.189024 -0.240575 -1.037695
v 0.206873 -0.207803 -1.037695
v 0.221820 -0.170899 -1.037695
v 0.233711 -0.130107 -1.037695
v 0.242394 -0.085668 -1.037695
v 0.247716 -0.037827 -1.037695
v 0.151524 0.013175 -1.037695
v 0.150574 -0.025493 -1.037695
v 0.147764 -0.061418 -1.037695
v 0.143149 -0.094482 -1.037695
v 0.136783 -0.124566 -1.037695
v 0.128723 -0.151553 -1.037695
v 0.119024 -0.175325 -1.037695
v 0.107741 -0.195764 -1.037695
v 0.094931 -0.212751 -1.037695
v 0.080649 -0.226169 -1.037695
v 0.064949 -0.235899 -1.037695
v 0.047889 -0.241824 -1.037695
v 0.029524 -0.243825 -1.037695
v 0.011158 -0.241824 -1.037695
v -0.005902 -0.235899 -1.037695
v -0.021601 -0.226169 -1.037695
v -0.035884 -0.212751 -1.037695
v -0.048694 -0.195764 -1.037695
v -0.059976 -0.175325 -1.037695
v -0.069676 -0.151553 -1.037695
v -0.077736 -0.124566 -1.037695
v -0.084101 -0.094482 -1.037695
v -0.088717 -0.061418 -1.037695
v -0.091527 -0.025493 -1.037695
v -0.092476 0.013175 -1.037695
v -0.091527 0.051842 -1.037695
v -0.088717 0.087767 -1.037695
v -0.084101 0.120831 -1.037695
v -0.077736 0.150915 -1.037695
v -0.069676 0.177903 -1.037695
v -0.059976 0.201675 -1.037695
v -0.048694 0.222113 -1.037695
v -0.035884 0.239101 -1.037695
v -0.021601 0.252518 -1.037695
v -0.005902 0.262249 -1.037695
v 0.011158 0.268173 -1.037695
v 0.029524 0.270175 -1.037695
v 0.047889 0.268173 -1.037695
v 0.064949 0.262249 -1.037695
v 0.080649 0.252518 -1.037695
v 0.094931 0.239101 -1.037695
v 0.107741 0.222113 -1.037695
v 0.119024 0.201675 -1.037695
v 0.128723 0.177903 -1.037695
v 0.136783 0.150915 -1.037695
v 0.143149 0.120831 -1.037695
v 0.147764 0.087767 -1.037695
v 0.150575 0.051842 -1.037695
vt 0.136842 0.000000
vt 0.115789 0.000000
vt 0.126316 0.000000
vt 0.105263 0.000000
vt 0.147368 0.000000
vt 0.094737 0.000000
vt 0.157895 0.000000
vt 0.084211 0.000000
vt 0.168421 0.000000
vt 0.178947 0.000000
vt 0.073684 0.000000
vt 0.189474 0.000000
vt 0.884211 0.000000
vt 0.063158 0.000000
vt 0.873684 0.000000
vt 0.894737 0.000000
vt 0.863158 0.000000
vt 0.905263 0.000000
vt 0.200000 0.000000
vt 0.052632 0.000000
vt 0.852632 0.000000
vt 0.915789 0.000000
vt 0.842105 0.000000
vt 0.926316 0.000000
vt 0.831579 0.000000
vt 0.936842 0.000000
vt 0.210526 0.000000
vt 0.042105 0.000000
vt 0.821053 0.000000
vt 0.947368 0.000000
vt 0.810526 0.000000
vt 0.957895 0.000000
vt 0.221053 0.000000
vt 0.031579 0.000000
vt 0.800000 0.000000
vt 0.968421 0.000000
vt 0.231579 0.000000
vt 0.021053 0.000000
vt 0.789474 0.000000
vt 0.978947 0.000000
vt 0.778947 0.000000
vt 0.989474 0.000000
vt 0.242105 0.000000
vt 0.010526 0.000000
vt 0.768421 0.000000
vt 1.000000 0.000000
vt 0.252632 0.000000
vt 0.000000 0.000000
vt 0.757895 0.000000
vt 0.505263 0.000000
vt 0.263158 0.000000
vt 0.747368 0.000000
vt 0.515789 0.000000
vt 0.494737 0.000000
vt 0.736842 0.000000
vt 0.526316 0.000000
vt 0.273684 0.000000
vt 0.484211 0.000000
vt 0.726316 0.000000
vt 0.536842 0.000000
vt 0.284211 0.000000
vt 0.473684 0.000000
vt 0.547368 0.000000
vt 0.715789 0.000000
vt 0.557895 0.000000
vt 0.705263 0.000000
vt 0.294737 0.000000
vt 0.463158 0.000000
vt 0.568421 0.000000
vt 0.694737 0.000000
vt 0.305263 0.000000
vt 0.452632 0.000000
vt 0.578947 0.000000
vt 0.684211 0.000000
vt 0.589474 0.000000
vt 0.673684 0.000000
vt 0.315789 0.000000
vt 0.442105 0.000000
vt 0.600000 0.000000
vt 0.663158 0.000000
vt 0.610526 0.000000
vt 0.652632 0.000000
vt 0.621053 0.000000
vt 0.642105 0.000000
vt 0.326316 0.000000
vt 0.431579 0.000000
vt 0.631579 0.000000
vt 0.336842 0.000000
vt 0.421053 0.000000
vt 0.347368 0.000000
vt 0.410526 0.000000
vt 0.357895 0.000000
vt 0.400000 0.000000
vt 0.368421 0.000000
vt 0.389474 0.000000
vt 0.378947 0.000000
vn 0.0000 0.0000 1.0000
usemtl Material.001
s off
f 14/1/1 12/2/1 13/3/1
f 14/1/1 11/4/1 12/2/1
f 15/5/1 11/4/1 14/1/1
f 15/5/1 10/6/1 11/4/1
f 16/7/1 10/6/1 15/5/1
f 16/7/1 9/8/1 10/6/1
f 17/9/1 9/8/1 16/7/1
f 18/10/1 9/8/1 17/9/1
f 18/10/1 8/11/1 9/8/1
f 19/12/1 8/11/1 18/10/1
f 19/12/1 85/13/1 8/11/1
f 85/13/1 7/14/1 8/11/1
f 19/12/1 84/15/1 85/13/1
f 86/16/1 7/14/1 85/13/1
f 19/12/1 83/17/1 84/15/1
f 87/18/1 7/14/1 86/16/1
f 20/19/1 83/17/1 19/12/1
f 87/18/1 6/20/1 7/14/1
f 20/19/1 82/21/1 83/17/1
f 88/22/1 6/20/1 87/18/1
f 20/19/1 81/23/1 82/21/1
f 89/24/1 6/20/1 88/22/1
f 20/19/1 80/25/1 81/23/1
f 90/26/1 6/20/1 89/24/1
f 21/27/1 80/25/1 20/19/1
f 90/26/1 5/28/1 6/20/1
f 21/27/1 79/29/1 80/25/1
f 91/30/1 5/28/1 90/26/1
f 21/27/1 78/31/1 79/29/1
f 92/32/1 5/28/1 91/30/1
f 22/33/1 78/31/1 21/27/1
f 92/32/1 4/34/1 5/28/1
f 22/33/1 77/35/1 78/31/1
f 93/36/1 4/34/1 92/32/1
f 23/37/1 77/35/1 22/33/1
f 93/36/1 3/38/1 4/34/1
f 23/37/1 76/39/1 77/35/1
f 94/40/1 3/38/1 93/36/1
f 23/37/1 75/41/1 76/39/1
f 95/42/1 3/38/1 94/40/1
f 24/43/1 75/41/1 23/37/1
f 95/42/1 2/44/1 3/38/1
f 24/43/1 74/45/1 75/41/1
f 96/46/1 2/44/1 95/42/1
f 25/47/1 74/45/1 24/43/1
f 96/46/1 1/48/1 2/44/1
f 25/47/1 73/49/1 74/45/1
f 49/50/1 1/48/1 96/46/1
f 26/51/1 73/49/1 25/47/1
f 26/51/1 72/52/1 73/49/1
f 50/53/1 1/48/1 49/50/1
f 50/53/1 48/54/1 1/48/1
f 26/51/1 71/55/1 72/52/1
f 51/56/1 48/54/1 50/53/1
f 27/57/1 71/55/1 26/51/1
f 51/56/1 47/58/1 48/54/1
f 27/57/1 70/59/1 71/55/1
f 52/60/1 47/58/1 51/56/1
f 28/61/1 70/59/1 27/57/1
f 52/60/1 46/62/1 47/58/1
f 53/63/1 46/62/1 52/60/1
f 28/61/1 69/64/1 70/59/1
f 54/65/1 46/62/1 53/63/1
f 28/61/1 68/66/1 69/64/1
f 29/67/1 68/66/1 28/61/1
f 54/65/1 45/68/1 46/62/1
f 55/69/1 45/68/1 54/65/1
f 29/67/1 67/70/1 68/66/1
f 30/71/1 67/70/1 29/67/1
f 55/69/1 44/72/1 45/68/1
f 56/73/1 44/72/1 55/69/1
f 30/71/1 66/74/1 67/70/1
f 57/75/1 44/72/1 56/73/1
f 30/71/1 65/76/1 66/74/1
f 31/77/1 65/76/1 30/71/1
f 57/75/1 43/78/1 44/72/1
f 58/79/1 43/78/1 57/75/1
f 31/77/1 64/80/1 65/76/1
f 59/81/1 43/78/1 58/79/1
f 31/77/1 63/82/1 64/80/1
f 60/83/1 43/78/1 59/81/1
f 31/77/1 62/84/1 63/82/1
f 32/85/1 62/84/1 31/77/1
f 60/83/1 42/86/1 43/78/1
f 61/87/1 42/86/1 60/83/1
f 32/85/1 61/87/1 62/84/1
f 32/85/1 42/86/1 61/87/1
f 33/88/1 42/86/1 32/85/1
f 33/88/1 41/89/1 42/86/1
f 34/90/1 41/89/1 33/88/1
f 34/90/1 40/91/1 41/89/1
f 35/92/1 40/91/1 34/90/1
f 35/92/1 39/93/1 40/91/1
f 36/94/1 39/93/1 35/92/1
f 36/94/1 38/95/1 39/93/1
f 37/96/1 38/95/1 36/94/1
