# Blender v2.92.0 OBJ File: ''
# www.blender.org
mtllib ButtonBase.mtl
o Plane_Plane.003
v -0.000000 6.000000 1.000000
v 0.000000 4.000000 1.000000
v -0.000000 6.000000 -1.000000
v 0.000000 4.000000 -1.000000
v 0.712858 6.000000 -1.000000
v 0.712858 6.000000 1.000000
v 0.712858 4.000000 1.000000
v 0.712858 4.000000 -1.000000
vt 0.000000 0.213000
vt -0.000667 0.704000
vt 0.296667 0.699000
vt 0.296000 0.212000
vt -0.000167 0.706000
vt -0.000500 0.212000
vt 0.296167 0.210000
vt 0.296833 0.699000
vt 0.000333 0.697000
vt 0.295833 0.689000
vt 0.297000 0.999500
vt 0.000333 1.000500
vt -0.000333 0.704500
vt 0.297000 0.704000
vt 0.297167 1.000000
vt 0.000167 1.000000
vt 0.297333 1.001500
vt 0.000667 1.000000
vt 0.000167 0.696500
vt 0.296167 0.688000
vt 0.297167 1.000000
vt 0.000167 0.999500
vt -0.000500 0.704000
vt 0.296833 0.703500
vn -1.0000 -0.0000 0.0000
vn 1.0000 0.0000 0.0000
vn 0.0000 0.0000 1.0000
vn 0.0000 -1.0000 0.0000
vn 0.0000 1.0000 0.0000
vn 0.0000 0.0000 -1.0000
usemtl Material.003
s off
f 1/1/1 3/2/1 4/3/1 2/4/1
f 6/5/2 7/6/2 8/7/2 5/8/2
f 1/9/3 2/10/3 7/11/3 6/12/3
f 2/13/4 4/14/4 8/15/4 7/16/4
f 3/17/5 1/18/5 6/19/5 5/20/5
f 4/21/6 3/22/6 5/23/6 8/24/6
