# Blender v2.92.0 OBJ File: ''
# www.blender.org
mtllib Gate.mtl
o Cube.001_Cube.001
v -10.000000 10.000000 1.000002
v -10.000000 0.000000 -1.000000
v -10.000000 -0.000000 1.000000
v -10.000000 10.000000 -0.999998
v 10.000000 0.000000 -1.000000
v 10.000000 10.000000 -0.999998
v 10.000000 -0.000000 1.000000
v 10.000000 10.000000 1.000002
v 10.000000 7.500000 1.000001
v -10.000000 2.500000 1.000000
v 0.000000 10.000000 1.000002
v -9.000001 11.058824 0.000002
v 10.000000 5.000000 1.000001
v -10.000000 5.000000 1.000001
v -5.000000 7.500000 1.000001
v 5.000000 10.000000 1.000002
v -5.000000 11.058824 0.000002
v 5.000000 7.500000 1.000001
v -10.000000 7.500000 1.000001
v 10.000000 2.500000 1.000000
v -5.000000 10.000000 1.000002
v -1.000001 11.058824 0.000002
v 7.500000 5.000000 1.000001
v 7.500000 3.750000 1.000001
v 3.000000 11.058824 0.000002
v 10.000000 8.750000 1.000001
v -10.000000 1.250000 1.000000
v -7.500000 7.500000 1.000001
v -5.000000 8.750000 1.000001
v -7.500000 8.750000 1.000001
v 7.000000 11.058824 0.000002
v -10.000000 3.750000 1.000001
v 10.000000 6.250000 1.000001
v -7.500000 3.750000 1.000001
v 7.500000 7.500000 1.000001
v 7.500000 6.250000 1.000001
v 7.500000 -0.000000 1.000000
v 7.500000 8.750000 1.000001
v 2.500000 8.750000 1.000001
v 5.000000 8.750000 1.000001
v 7.500000 10.000000 1.000002
v -7.500000 2.500000 1.000000
v -10.000000 8.750000 1.000001
v -2.500000 8.750000 1.000001
v 0.000000 8.750000 1.000001
v -7.500000 5.000000 1.000001
v -2.500000 10.000000 1.000002
v 10.000000 1.250000 1.000000
v -7.500000 -0.000000 1.000000
v -7.500000 1.250000 1.000000
v -7.500000 10.000000 1.000002
v -7.500000 6.250000 1.000001
v 7.500000 2.500000 1.000000
v 7.500000 1.250000 1.000000
v 10.000000 3.750000 1.000001
v -10.000000 6.250000 1.000001
v 2.500000 10.000000 1.000002
v 10.000000 5.000000 -0.999999
v -10.000000 5.000000 -0.999999
v 0.000000 10.000000 -0.999998
v 10.000000 7.500000 -0.999999
v -10.000000 7.500000 -0.999999
v 5.000000 10.000000 -0.999998
v 10.000000 2.500000 -1.000000
v -10.000000 2.500000 -1.000000
v -5.000000 7.500000 -0.999999
v -5.000000 10.000000 -0.999998
v 5.000000 7.500000 -0.999999
v 10.000000 8.750000 -0.999999
v -10.000000 8.750000 -0.999999
v 7.500000 1.250000 -1.000000
v 7.500000 10.000000 -0.999998
v 7.500000 0.000000 -1.000000
v 10.000000 3.750000 -0.999999
v -10.000000 3.750000 -0.999999
v -2.500000 10.000000 -0.999998
v 7.500000 5.000000 -0.999999
v 0.000000 8.750000 -0.999999
v 2.500000 8.750000 -0.999999
v 10.000000 6.250000 -0.999999
v -10.000000 6.250000 -0.999999
v 2.500000 10.000000 -0.999998
v 10.000000 1.250000 -1.000000
v -10.000000 1.250000 -1.000000
v -7.500000 8.750000 -0.999999
v -7.500000 10.000000 -0.999998
v -7.500000 0.000000 -1.000000
v 7.500000 6.250000 -0.999999
v -7.500000 3.750000 -0.999999
v -7.500000 5.000000 -0.999999
v -7.500000 1.250000 -1.000000
v -7.500000 2.500000 -1.000000
v 7.500000 7.500000 -0.999999
v 5.000000 8.750000 -0.999999
v 7.500000 8.750000 -0.999999
v 7.500000 2.500000 -1.000000
v 7.500000 3.750000 -0.999999
v -5.000000 8.750000 -0.999999
v -2.500000 8.750000 -0.999999
v -7.500000 6.250000 -0.999999
v -7.500000 7.500000 -0.999999
v 10.000000 0.000000 0.000000
v -8.750000 -0.000000 1.000000
v 8.750000 -0.000000 1.000000
v -10.000000 0.000000 0.000000
v 8.750000 0.000000 -1.000000
v -8.750000 0.000000 -1.000000
v 10.000000 -0.000000 0.500000
v -8.125000 -0.000000 1.000000
v 9.375000 -0.000000 1.000000
v -10.000000 -0.000000 0.500000
v 9.375000 0.000000 -1.000000
v -8.125000 0.000000 -1.000000
v 10.000000 0.000000 -0.500000
v -9.375000 -0.000000 1.000000
v 8.125000 -0.000000 1.000000
v -10.000000 0.000000 -0.500000
v 8.125000 0.000000 -1.000000
v -9.375000 0.000000 -1.000000
v 10.000000 -0.000000 0.750000
v -7.812500 -0.000000 1.000000
v 9.687500 -0.000000 1.000000
v -10.000000 -0.000000 0.750000
v 9.687500 0.000000 -1.000000
v -7.812500 0.000000 -1.000000
v 10.000000 0.000000 -0.250000
v -9.062500 -0.000000 1.000000
v 8.437500 -0.000000 1.000000
v -10.000000 0.000000 -0.250000
v 8.437500 0.000000 -1.000000
v -9.062500 0.000000 -1.000000
v 10.000000 -0.000000 0.250000
v -8.437500 -0.000000 1.000000
v 9.062500 -0.000000 1.000000
v -10.000000 -0.000000 0.250000
v 9.062500 0.000000 -1.000000
v -8.437500 0.000000 -1.000000
v 10.000000 0.000000 -0.750000
v -9.687500 -0.000000 1.000000
v 7.812500 -0.000000 1.000000
v -10.000000 0.000000 -0.750000
v 7.812500 0.000000 -1.000000
v -9.687500 0.000000 -1.000000
vt 0.749950 0.999900
vt 0.250050 0.000100
vt 0.312537 0.000100
vt 0.375025 0.000100
vt 0.437513 0.000100
vt 0.500000 0.000100
vt 0.562487 0.000100
vt 0.624975 0.000100
vt 0.687462 0.000100
vt 0.749950 0.000100
vt 0.749950 0.125075
vt 0.749950 0.250050
vt 0.749950 0.375025
vt 0.749950 0.500000
vt 0.749950 0.624975
vt 0.749950 0.749950
vt 0.749950 0.874925
vt 1.500000 1.000000
vt 1.250000 0.875000
vt 1.500000 0.875000
vt 0.750000 1.000000
vt 0.250000 0.000000
vt 0.312500 0.000000
vt 0.375000 0.000000
vt 0.437500 0.000000
vt 0.500000 0.000000
vt 0.562500 0.000000
vt 0.625000 0.000000
vt 0.687500 0.000000
vt 0.750000 0.000000
vt 0.750000 0.125000
vt 0.750000 0.250000
vt 0.750000 0.375000
vt 0.750000 0.500000
vt 0.750000 0.625000
vt 0.750000 0.750000
vt 0.750000 0.875000
vt 1.500000 1.000000
vt 1.250000 0.875000
vt 1.500000 0.875000
vt 2.000000 0.350000
vt -1.000000 0.650000
vt -1.000000 0.350000
vt -0.625000 0.350000
vt -0.250000 0.350000
vt 0.125000 0.350000
vt 0.500000 0.350000
vt 0.875000 0.350000
vt 1.250000 0.350000
vt 1.625000 0.350000
vt 1.000000 0.875000
vt 1.000000 1.000000
vt 0.750000 0.875000
vt 1.500000 0.125000
vt 1.250000 0.125000
vt 1.250000 0.000000
vt 1.281250 0.000000
vt 1.312500 0.000000
vt 1.343750 0.000000
vt 1.375000 0.000000
vt 1.406250 0.000000
vt 1.437500 0.000000
vt 1.468750 0.000000
vt 1.500000 0.000000
vt -0.250000 1.000000
vt -0.500000 1.000000
vt -0.500000 0.875000
vt -0.250000 0.875000
vt -0.500000 0.750000
vt 0.250050 0.999900
vt 0.250050 0.874925
vt 0.250050 0.749950
vt 0.250050 0.624975
vt 0.250050 0.500000
vt 0.250050 0.375025
vt 0.250050 0.250050
vt 0.250050 0.125075
vt 1.250000 1.000000
vt 0.250000 1.000000
vt 0.250000 0.875000
vt 0.250000 0.750000
vt 0.250000 0.625000
vt 0.250000 0.500000
vt 0.250000 0.375000
vt 0.250000 0.250000
vt 0.250000 0.125000
vt 1.250000 1.000000
vt 2.000000 0.650000
vt 1.625000 0.650000
vt 1.250000 0.650000
vt 0.875000 0.650000
vt 0.500000 0.650000
vt 0.125000 0.650000
vt -0.250000 0.650000
vt -0.625000 0.650000
vt 1.500000 0.500000
vt 1.250000 0.500000
vt 1.250000 0.375000
vt 1.500000 0.375000
vt 0.500000 1.000000
vt 0.250000 1.000000
vt 0.250000 0.875000
vt 1.500000 0.250000
vt 1.250000 0.250000
vt 0.000000 1.000000
vt 0.000000 0.750000
vt 0.000000 0.875000
vt -0.250000 0.750000
vt 1.500000 0.750000
vt 1.250000 0.750000
vt 1.250000 0.625000
vt 1.500000 0.625000
vt 0.750000 1.000000
vt 0.500000 0.875000
vt -0.500000 0.625000
vt -0.250000 0.625000
vt -0.500000 0.500000
vt 1.000000 0.750000
vt -0.250000 0.125000
vt -0.500000 0.000000
vt -0.468750 0.000000
vt -0.437500 0.000000
vt -0.406250 0.000000
vt -0.375000 0.000000
vt -0.343750 0.000000
vt -0.312500 0.000000
vt -0.281250 0.000000
vt -0.250000 0.000000
vt -0.500000 0.125000
vt -0.250000 0.250000
vt -0.500000 0.250000
vt -0.250000 0.375000
vt -0.500000 0.375000
vt -0.250000 0.500000
vt 0.500000 1.000000
vt 0.250000 1.000000
vt 0.250000 0.875000
vt 1.500000 0.500000
vt 1.250000 0.375000
vt 1.500000 0.375000
vt 1.250000 0.500000
vt 1.500000 0.250000
vt 1.250000 0.125000
vt 1.500000 0.125000
vt 1.250000 0.250000
vt 0.000000 0.750000
vt 0.000000 0.875000
vt -0.250000 0.750000
vt 0.000000 1.000000
vt -0.250000 1.000000
vt -0.250000 0.875000
vt 1.000000 1.000000
vt 0.750000 1.000000
vt 0.750000 0.875000
vt 1.500000 0.750000
vt 1.250000 0.625000
vt 1.500000 0.625000
vt 1.250000 0.750000
vt 0.500000 0.875000
vt 1.000000 0.875000
vt -0.250000 0.375000
vt -0.500000 0.375000
vt -0.500000 0.250000
vt -0.250000 0.500000
vt -0.500000 0.500000
vt -0.250000 0.250000
vt -0.250000 0.125000
vt -0.500000 0.125000
vt -0.500000 0.000000
vt -0.250000 0.625000
vt -0.500000 0.875000
vt -0.500000 0.750000
vt -0.500000 1.000000
vt -0.500000 0.625000
vt 1.250000 0.000000
vt 1.281250 0.000000
vt 1.312500 0.000000
vt 1.343750 0.000000
vt 1.375000 0.000000
vt 1.406250 0.000000
vt 1.437500 0.000000
vt 1.468750 0.000000
vt 1.500000 0.000000
vt -0.468750 0.000000
vt -0.437500 0.000000
vt -0.406250 0.000000
vt -0.375000 0.000000
vt -0.343750 0.000000
vt -0.312500 0.000000
vt -0.281250 0.000000
vt -0.250000 0.000000
vt 1.000000 0.750000
vt 0.200000 0.250000
vt 0.000000 0.000000
vt 0.200000 0.000000
vt 0.266667 0.833333
vt 0.533333 1.000000
vt 0.266667 1.000000
vt 0.266667 0.666667
vt 0.533333 0.833333
vt 0.266667 0.500000
vt 0.533333 0.666667
vt 0.266667 0.333333
vt 0.533333 0.500000
vt 0.266667 0.166667
vt 0.533333 0.333333
vt 0.533333 0.000000
vt 0.533333 0.166667
vt 0.266667 0.000000
vt 0.200000 1.000000
vt 0.000000 0.750000
vt 0.200000 0.750000
vt 0.000000 1.000000
vt 0.000000 0.500000
vt 0.200000 0.500000
vt 0.000000 0.250000
vt 0.266667 0.166667
vt 0.000000 0.000000
vt 0.266667 0.000000
vt 0.266667 0.333333
vt 0.000000 0.166667
vt 0.266667 0.500000
vt 0.000000 0.333333
vt 0.266667 0.666667
vt 0.000000 0.500000
vt 0.266667 0.833333
vt 0.000000 0.666667
vt 0.266667 1.000000
vt 0.000000 0.833333
vt 0.400000 0.500000
vt 0.200000 0.250000
vt 0.400000 0.250000
vt 0.400000 0.250000
vt 0.200000 0.000000
vt 0.400000 0.000000
vt 0.200000 0.500000
vt 0.200000 0.250000
vt 0.000000 1.000000
vn -1.0000 0.0000 0.0000
vn 0.0000 0.0000 -1.0000
vn 1.0000 -0.0000 0.0000
vn 0.0000 -0.0000 1.0000
vn 0.0000 1.0000 0.0000
vn -0.5738 -0.2875 0.7669
vn 0.8275 -0.3970 0.3970
vn -0.7071 0.0000 0.7071
vn 0.3017 -0.5945 0.7454
vn 0.7068 0.0270 0.7068
vn 0.3015 -0.3015 0.9045
vn 0.2877 -0.5711 0.7688
vn -0.8035 -0.2437 0.5431
vn -0.5796 0.1137 0.8069
vn 0.3445 -0.5721 0.7443
vn 0.7071 0.0000 0.7071
vn -0.0238 -0.4566 0.8894
vn -0.7802 -0.2020 -0.5921
vn 0.7071 -0.0000 -0.7071
vn -0.7068 0.0270 -0.7068
vn -0.1684 -0.0485 -0.9845
vn 0.2397 -0.3252 -0.9148
vn 0.0203 -0.7797 -0.6259
vn 0.0011 -0.2874 -0.9578
vn -0.2072 -0.3597 -0.9098
vn 0.3015 -0.3015 -0.9045
vn -0.7071 -0.0000 -0.7071
vn -0.4992 -0.1747 -0.8487
vn 0.0318 -0.4597 -0.8875
usemtl Material.001
s 1
f 1/1/1 2/2/1 141/3/1 117/4/1 129/5/1 105/6/1 135/7/1 111/8/1 123/9/1 3/10/1 27/11/1 10/12/1 32/13/1 14/14/1 56/15/1 19/16/1 43/17/1
f 4/18/2 85/19/2 70/20/2
f 6/21/3 7/22/3 120/23/3 108/24/3 132/25/3 102/26/3 126/27/3 114/28/3 138/29/3 5/30/3 83/31/3 64/32/3 74/33/3 58/34/3 80/35/3 61/36/3 69/37/3
f 8/38/4 38/39/4 26/40/4
f 4/41/5 8/42/5 6/43/5 72/44/5 63/45/5 82/46/5 60/47/5 76/48/5 67/49/5 86/50/5
f 40/51/6 16/52/4 39/53/7
f 48/54/4 54/55/8 37/56/8
f 48/54/4 37/56/8 140/57/4 116/58/4 128/59/4 104/60/4 134/61/4 110/62/4 122/63/4 7/64/4
f 51/65/4 1/66/4 43/67/4
f 30/68/4 51/65/4 43/67/4
f 30/68/4 43/67/4 19/69/4
f 1/1/1 4/70/1 70/71/1 62/72/1 81/73/1 59/74/1 75/75/1 65/76/1 84/77/1 2/2/1
f 4/18/2 86/78/2 85/19/2
f 6/21/3 8/79/3 26/80/3 9/81/3 33/82/3 13/83/3 55/84/3 20/85/3 48/86/3 7/22/3
f 8/38/4 41/87/4 38/39/4
f 4/41/5 1/88/5 51/89/5 21/90/5 47/91/5 11/92/5 57/93/5 16/94/5 41/95/5 8/42/5
f 13/96/4 23/97/8 24/98/8
f 13/96/4 24/98/8 55/99/4
f 11/100/4 47/101/4 44/102/9
f 20/103/4 53/104/8 54/55/8
f 20/103/4 54/55/8 48/54/4
f 21/105/4 51/65/4 30/68/4
f 15/106/10 29/107/11 28/108/12
f 9/109/4 35/110/13 36/111/14
f 9/109/4 36/111/14 33/112/4
f 16/52/4 57/113/4 39/53/7
f 33/112/4 36/111/14 23/97/8
f 33/112/4 23/97/8 13/96/4
f 57/113/4 11/100/4 45/114/15
f 39/53/7 57/113/4 45/114/15
f 29/107/11 21/105/4 30/68/4
f 28/108/12 29/107/11 30/68/4
f 28/108/12 30/68/4 19/69/4
f 28/108/12 19/69/4 56/115/4
f 52/116/16 28/108/12 56/115/4
f 52/116/16 56/115/4 14/117/4
f 44/102/9 47/101/4 29/107/11
f 47/101/4 21/105/4 29/107/11
f 55/99/4 53/104/8 20/103/4
f 55/99/4 24/98/8 53/104/8
f 38/39/4 40/51/6 18/118/17
f 38/39/4 41/87/4 40/51/6
f 41/87/4 16/52/4 40/51/6
f 50/119/16 3/120/4 139/121/4 115/122/4 127/123/4 103/124/4 133/125/4 109/126/4 121/127/4 49/128/16
f 50/119/16 27/129/4 3/120/4
f 50/119/16 42/130/16 27/129/4
f 42/130/16 10/131/4 27/129/4
f 42/130/16 34/132/16 10/131/4
f 34/132/16 32/133/4 10/131/4
f 34/132/16 46/134/16 32/133/4
f 46/134/16 14/117/4 32/133/4
f 46/134/16 52/116/16 14/117/4
f 45/114/15 11/100/4 44/102/9
f 26/40/4 35/110/13 9/109/4
f 26/40/4 38/39/4 35/110/13
f 38/39/4 18/118/17 35/110/13
f 60/135/2 82/136/2 79/137/18
f 59/138/2 89/139/19 75/140/2
f 59/138/2 90/141/19 89/139/19
f 65/142/2 91/143/19 84/144/2
f 65/142/2 92/145/19 91/143/19
f 68/146/20 94/147/21 93/148/22
f 63/149/2 72/150/2 95/151/2
f 67/152/2 76/153/2 99/154/23
f 62/155/2 100/156/19 81/157/2
f 62/155/2 101/158/24 100/156/19
f 81/157/2 90/141/19 59/138/2
f 81/157/2 100/156/19 90/141/19
f 99/154/23 76/153/2 78/159/25
f 76/153/2 60/135/2 78/159/25
f 98/160/26 67/152/2 99/154/23
f 97/161/27 74/162/2 64/163/2
f 97/161/27 77/164/27 74/162/2
f 77/164/27 58/165/2 74/162/2
f 96/166/27 97/161/27 64/163/2
f 71/167/27 83/168/2 5/169/2
f 71/167/27 96/166/27 83/168/2
f 96/166/27 64/163/2 83/168/2
f 78/159/25 60/135/2 79/137/18
f 77/164/27 88/170/28 58/165/2
f 95/151/2 69/171/2 61/172/2
f 95/151/2 72/150/2 69/171/2
f 72/150/2 6/173/2 69/171/2
f 93/148/22 95/151/2 61/172/2
f 93/148/22 94/147/21 95/151/2
f 94/147/21 63/149/2 95/151/2
f 88/170/28 80/174/2 58/165/2
f 88/170/28 93/148/22 80/174/2
f 93/148/22 61/172/2 80/174/2
f 84/144/2 87/175/19 125/176/2 113/177/2 137/178/2 107/179/2 131/180/2 119/181/2 143/182/2 2/183/2
f 84/144/2 91/143/19 87/175/19
f 71/167/27 5/169/2 124/184/2 112/185/2 136/186/2 106/187/2 130/188/2 118/189/2 142/190/2 73/191/27
f 75/140/2 92/145/19 65/142/2
f 75/140/2 89/139/19 92/145/19
f 79/137/18 82/136/2 94/147/21
f 82/136/2 63/149/2 94/147/21
f 85/19/2 98/160/26 66/192/29
f 85/19/2 86/78/2 98/160/26
f 86/78/2 67/152/2 98/160/26
f 70/20/2 101/158/24 62/155/2
f 70/20/2 85/19/2 101/158/24
f 85/19/2 66/192/29 101/158/24
f 98/160/26 15/106/10 66/192/29
f 99/193/23 29/194/11 98/195/26
f 54/196/8 73/197/27 37/198/8
f 53/199/8 71/200/27 54/196/8
f 24/201/8 96/202/27 53/199/8
f 23/203/8 97/204/27 24/201/8
f 36/205/14 77/206/27 23/203/8
f 93/207/22 88/208/28 36/205/14
f 93/207/22 36/205/14 35/209/13
f 40/51/6 94/147/21 18/118/17
f 94/210/21 39/211/7 79/212/18
f 94/210/21 40/213/6 39/211/7
f 54/196/8 71/200/27 73/197/27
f 53/199/8 96/202/27 71/200/27
f 24/201/8 97/204/27 96/202/27
f 23/203/8 77/206/27 97/204/27
f 36/205/14 88/208/28 77/206/27
f 18/118/17 94/147/21 68/146/20
f 79/212/18 45/214/15 78/215/25
f 99/193/23 44/216/9 29/194/11
f 78/215/25 44/216/9 99/193/23
f 91/217/19 49/218/16 87/219/19
f 92/220/19 50/221/16 91/217/19
f 89/222/19 42/223/16 92/220/19
f 90/224/19 34/225/16 89/222/19
f 100/226/19 46/227/16 90/224/19
f 101/228/24 52/229/16 100/226/19
f 79/212/18 39/211/7 45/214/15
f 78/215/25 45/214/15 44/216/9
f 66/230/29 28/231/12 101/232/24
f 93/233/22 18/234/17 68/235/20
f 66/230/29 15/236/10 28/231/12
f 93/233/22 35/237/13 18/234/17
f 98/160/26 29/107/11 15/106/10
f 91/217/19 50/221/16 49/218/16
f 92/220/19 42/223/16 50/221/16
f 89/222/19 34/225/16 42/223/16
f 90/224/19 46/227/16 34/225/16
f 100/226/19 52/229/16 46/227/16
f 101/228/24 28/238/12 52/229/16
