# Blender v2.92.0 OBJ File: 'leftDoor.blend'
# www.blender.org
mtllib LeftDoor.mtl
o Door_left_Cube.003
v -7.995068 0.010605 0.669072
v -7.995068 0.010605 -0.130928
v -5.995068 0.010605 0.669072
v -5.995068 0.010605 -0.130928
v -7.995068 9.010605 0.669072
v -7.995068 9.010605 -0.130928
v -5.995068 9.010605 -0.130928
v -5.995068 9.010605 0.669072
v 0.004932 0.010605 0.669072
v 0.004932 0.010605 -0.130928
v 0.004932 9.010605 -0.130928
v 0.004932 9.010605 0.669072
vt 0.125000 0.500000
vt 0.375000 0.500000
vt 0.375000 0.750000
vt 0.125000 0.750000
vt 0.625000 0.500000
vt 0.875000 0.500000
vt 0.875000 0.750000
vt 0.625000 0.750000
vt 0.479166 0.702859
vt 0.479166 0.000000
vt 0.791731 0.000000
vt 0.791731 0.702859
vt 0.791731 0.937145
vt 0.479166 0.937145
vt 0.522227 0.000000
vt 0.522227 1.000000
vt 0.462956 1.000000
vt 0.462956 0.000000
vt 0.833398 0.000000
vt 0.833398 0.702996
vt 0.791731 0.702996
vt 0.791731 0.000000
vt 0.625000 0.750000
vt 0.625000 0.500000
vt 0.375000 0.500000
vt 0.375000 0.750000
vt 0.479166 0.234286
vt 0.479166 0.937145
vt 0.166602 0.937145
vt 0.166602 0.234286
vt 0.166602 0.000000
vt 0.479166 0.000000
vn 0.0000 -1.0000 0.0000
vn 0.0000 1.0000 0.0000
vn 0.0000 0.0000 -1.0000
vn -1.0000 0.0000 0.0000
vn 1.0000 0.0000 0.0000
vn 0.0000 0.0000 1.0000
usemtl Material.004
s off
f 2/1/1 4/2/1 3/3/1 1/4/1
f 7/5/2 6/6/2 5/7/2 8/8/2
f 7/9/3 11/10/3 10/11/3 4/12/3 2/13/3 6/14/3
f 1/15/4 5/16/4 6/17/4 2/18/4
f 10/19/5 11/20/5 12/21/5 9/22/5
f 7/5/2 8/8/2 12/23/2 11/24/2
f 3/3/1 4/2/1 10/25/1 9/26/1
f 3/27/6 9/28/6 12/29/6 8/30/6 5/31/6 1/32/6
