# Blender v2.92.0 OBJ File: ''
# www.blender.org
mtllib untitled.mtl
o Plane
v 8.000000 0.000000 -1.500000
v -8.000000 0.000000 -1.500000
v 8.000000 10.000000 1.500000
v 8.000000 10.000000 -1.500000
v -8.000000 10.000000 1.500000
v -8.000000 10.000000 -1.500000
v -5.714286 10.000000 1.500000
v -3.428571 10.000000 1.500000
v -1.142857 10.000000 1.500000
v 1.142857 10.000000 1.500000
v 3.428571 10.000000 1.500000
v 5.714286 10.000000 1.500000
v 5.714286 10.000000 -1.500000
v 3.428571 10.000000 -1.500000
v 1.142857 10.000000 -1.500000
v -1.142857 10.000000 -1.500000
v -3.428571 10.000000 -1.500000
v -5.714286 10.000000 -1.500000
v -5.714286 12.000000 1.500000
v -3.428571 12.000000 1.500000
v -1.142857 12.000000 1.500000
v 1.142857 12.000000 1.500000
v 3.428571 12.000000 1.500000
v 5.714286 12.000000 1.500000
v 5.714286 12.000000 -1.500000
v 3.428571 12.000000 -1.500000
v 1.142857 12.000000 -1.500000
v -1.142857 12.000000 -1.500000
v -3.428571 12.000000 -1.500000
v -5.714286 12.000000 -1.500000
v 8.000000 9.000000 1.500000
v 8.000000 8.000000 1.000000
v 8.000000 2.000000 1.000000
v -8.000000 9.000000 1.500000
v -8.000000 8.000000 1.000000
v -8.000000 2.000000 1.000000
v -8.000000 0.000000 1.500000
v 8.000000 0.000000 1.500000
v 8.000000 1.000000 1.500000
v -8.000000 1.000000 1.500000
v 8.000000 1.000000 -1.500000
v 8.000000 2.000000 -1.000000
v 8.000000 8.000000 -1.000000
v 8.000000 9.000000 -1.500000
v -8.000000 1.000000 -1.500000
v -8.000000 2.000000 -1.000000
v -8.000000 8.000000 -1.000000
v -8.000000 9.000000 -1.500000
v -4.952381 12.300000 1.500000
v -4.190476 12.300000 1.500000
v -4.190476 12.300000 -1.500000
v -4.952381 12.300000 -1.500000
v -0.380952 12.300000 1.500000
v 0.380952 12.300000 1.500000
v 4.190476 12.300000 1.500000
v 4.952381 12.300000 1.500000
v 4.952381 12.300000 -1.500000
v 4.190476 12.300000 -1.500000
v 0.380952 12.300000 -1.500000
v -0.380952 12.300000 -1.500000
vt 0.794906 0.664679
vt 0.585007 0.664679
vt 0.585007 0.524746
vt 0.794906 0.524746
vt 0.000000 0.000000
vt 0.209899 0.000000
vt 0.209899 0.069361
vt 0.174916 0.138723
vt 0.174915 0.554892
vt 0.209899 0.624253
vt 0.209899 0.693615
vt 0.000000 0.693615
vt 0.000000 0.624253
vt 0.034983 0.554892
vt 0.034983 0.138723
vt 0.000000 0.069361
vt 0.999276 0.629696
vt 0.999276 0.699662
vt 0.856572 0.699662
vt 0.713868 0.699662
vt 0.571165 0.699662
vt 0.428461 0.699662
vt 0.285757 0.699662
vt 0.143054 0.699662
vt 0.000350 0.699662
vt 0.000350 0.629696
vt 1.003520 0.629696
vt 1.003520 0.699662
vt 0.859589 0.699662
vt 0.715659 0.699662
vt 0.571729 0.699662
vt 0.427798 0.699662
vt 0.283867 0.699662
vt 0.139937 0.699662
vt -0.003993 0.699662
vt -0.003993 0.629696
vt 0.209899 0.069361
vt 0.209899 0.000000
vt 0.419797 0.000000
vt 0.419797 0.069361
vt 0.384814 0.138723
vt 0.384814 0.554892
vt 0.419797 0.624253
vt 0.419797 0.693615
vt 0.209899 0.693615
vt 0.209899 0.624253
vt 0.244882 0.554892
vt 0.244882 0.138723
vt 0.375109 0.664679
vt 0.165210 0.664679
vt 0.165210 0.524746
vt 0.375109 0.524746
vt 0.860067 0.419797
vt 0.860067 0.629696
vt 0.721345 0.629696
vt 0.721345 0.419797
vt 0.860067 0.839594
vt 0.721345 0.839594
vt 0.721345 0.629696
vt 0.860067 0.629696
vt 0.160405 0.903513
vt 0.021683 0.903513
vt 0.021683 0.693615
vt 0.160405 0.693615
vt 0.860067 0.209899
vt 0.721345 0.209899
vt 0.721345 0.000000
vt 0.860067 0.000000
vt 0.585007 0.664678
vt 0.375109 0.664678
vt 0.375109 0.524746
vt 0.585007 0.524746
vt 0.375109 0.524746
vt 0.165210 0.524746
vt 0.165210 0.384814
vt 0.375109 0.384814
vt 0.728590 0.699662
vt 0.874519 0.699662
vt 0.874519 0.839594
vt 0.825876 0.860584
vt 0.777233 0.860584
vt 0.728590 0.839594
vt 0.699662 0.209899
vt 0.699662 0.000000
vt 0.000000 0.903513
vt 0.000000 0.693615
vt 0.699662 0.839594
vt 0.699662 0.629696
vt 0.320810 0.693615
vt 0.320810 0.903513
vt 0.182088 0.903513
vt 0.182088 0.693615
vt 0.114945 0.699662
vt 0.264872 0.699662
vt 0.264872 0.839594
vt 0.214896 0.860584
vt 0.164920 0.860584
vt 0.114945 0.839594
vt 0.144872 0.699662
vt 0.290801 0.699662
vt 0.290801 0.839594
vt 0.242158 0.860584
vt 0.193515 0.860584
vt 0.144872 0.839594
vt 0.414800 0.699662
vt 0.564727 0.699662
vt 0.564727 0.839594
vt 0.514751 0.860584
vt 0.464775 0.860584
vt 0.414799 0.839594
vt 0.436731 0.699662
vt 0.582661 0.699662
vt 0.582661 0.839594
vt 0.534017 0.860584
vt 0.485374 0.860584
vt 0.436731 0.839594
vt 0.860067 0.209899
vt 0.860067 0.419797
vt 0.721345 0.419797
vt 0.721345 0.209899
vt 0.714655 0.699662
vt 0.864582 0.699662
vt 0.864582 0.839594
vt 0.814606 0.860584
vt 0.764631 0.860584
vt 0.714655 0.839594
vt 0.999276 0.559729
vt 0.000350 0.559729
vt 0.000350 0.139932
vt 0.999276 0.139932
vt 0.999276 0.000000
vt 0.999276 0.069966
vt 0.000350 0.069966
vt 0.000350 0.000000
vt 0.860068 0.209899
vt 0.860068 0.000000
vt 1.000000 0.000000
vt 1.000000 0.209899
vt 1.003520 0.000000
vt 1.003520 0.069966
vt -0.003993 0.069966
vt -0.003993 0.000000
vt 1.003520 0.139932
vt -0.003993 0.139932
vt 1.003520 0.559729
vt -0.003993 0.559729
vt 0.160405 0.903513
vt 0.160405 0.693615
vt 0.886721 0.629696
vt 0.886721 0.419797
vt 0.893385 0.419797
vt 0.893385 0.629696
vt 0.699662 0.419797
vt 0.699662 0.209899
vt 0.880058 0.629696
vt 0.880058 0.419797
vt 0.886721 0.419797
vt 0.886721 0.629696
vt 0.699662 0.629696
vt 0.699662 0.419797
vt 0.880058 0.839594
vt 0.880058 0.629696
vt 0.886721 0.629696
vt 0.886721 0.839594
vn 0.0000 1.0000 0.0000
vn -1.0000 0.0000 0.0000
vn 0.0000 0.0000 1.0000
vn -0.0000 0.0000 -1.0000
vn 1.0000 0.0000 0.0000
vn -0.3664 0.9305 0.0000
vn 0.0000 -0.4472 0.8944
vn 0.0000 0.4472 0.8944
vn 0.0000 -1.0000 0.0000
vn -0.0000 0.4472 -0.8944
vn -0.0000 -0.4472 -0.8944
vn 0.3664 0.9305 0.0000
usemtl Material.002
s off
f 3/1/1 4/2/1 13/3/1 12/4/1
f 2/5/2 37/6/2 40/7/2 36/8/2 35/9/2 34/10/2 5/11/2 6/12/2 48/13/2 47/14/2 46/15/2 45/16/2
f 31/17/3 3/18/3 12/19/3 11/20/3 10/21/3 9/22/3 8/23/3 7/24/3 5/25/3 34/26/3
f 48/27/4 6/28/4 18/29/4 17/30/4 16/31/4 15/32/4 14/33/4 13/34/4 4/35/4 44/36/4
f 39/37/5 38/38/5 1/39/5 41/40/5 42/41/5 43/42/5 44/43/5 4/44/5 3/45/5 31/46/5 32/47/5 33/48/5
f 11/49/1 14/50/1 15/51/1 10/52/1
f 12/53/5 13/54/5 25/55/5 24/56/5
f 7/57/2 19/58/2 30/59/2 18/60/2
f 9/61/2 21/62/2 28/63/2 16/64/2
f 11/65/2 23/66/2 26/67/2 14/68/2
f 9/69/1 16/70/1 17/71/1 8/72/1
f 7/73/1 18/74/1 6/75/1 5/76/1
f 11/77/3 12/78/3 24/79/3 56/80/3 55/81/3 23/82/3
f 55/83/6 58/84/6 26/67/6 23/66/6
f 53/85/6 60/86/6 28/63/6 21/62/6
f 49/87/6 52/88/6 30/59/6 19/58/6
f 8/89/5 17/90/5 29/91/5 20/92/5
f 13/93/4 14/94/4 26/95/4 58/96/4 57/97/4 25/98/4
f 7/99/3 8/100/3 20/101/3 50/102/3 49/103/3 19/104/3
f 15/105/4 16/106/4 28/107/4 60/108/4 59/109/4 27/110/4
f 9/111/3 10/112/3 22/113/3 54/114/3 53/115/3 21/116/3
f 10/117/5 15/118/5 27/119/5 22/120/5
f 17/121/4 18/122/4 30/123/4 52/124/4 51/125/4 29/126/4
f 32/127/3 35/128/3 36/129/3 33/130/3
f 32/127/7 31/17/7 34/26/7 35/128/7
f 38/131/3 39/132/3 40/133/3 37/134/3
f 36/129/8 40/133/8 39/132/8 33/130/8
f 1/135/9 38/136/9 37/137/9 2/138/9
f 2/139/4 45/140/4 41/141/4 1/142/4
f 45/140/10 46/143/10 42/144/10 41/141/10
f 46/143/4 47/145/4 43/146/4 42/144/4
f 47/145/11 48/27/11 44/36/11 43/146/11
f 20/92/12 29/91/12 51/147/12 50/148/12
f 50/149/1 51/150/1 52/151/1 49/152/1
f 22/120/12 27/119/12 59/153/12 54/154/12
f 54/155/1 59/156/1 60/157/1 53/158/1
f 24/56/12 25/55/12 57/159/12 56/160/12
f 56/161/1 57/162/1 58/163/1 55/164/1
