# Blender v2.92.0 OBJ File: ''
# www.blender.org
mtllib skyBox(night)2.mtl
o Cube_Cube.003
v 45.766911 45.766918 -45.766903
v 45.766911 -45.766903 -45.766918
v 45.766911 -45.766918 45.766903
v 45.766911 45.766903 45.766918
v -45.766911 -45.766918 45.766903
v -45.766911 45.766903 45.766918
v -45.766911 -45.766903 -45.766918
v -45.766911 45.766918 -45.766903
vt 0.753407 0.666017
vt 0.754149 0.333996
vt 1.000475 0.333996
vt 0.999732 0.666017
vt -0.000235 0.666017
vt 0.000507 0.333996
vt 0.250498 0.333996
vt 0.250498 0.666017
vt 0.499504 0.333996
vt 0.499504 0.666017
vt 0.250498 0.999337
vt 0.499504 0.999337
vt 0.250498 -0.000143
vt 0.499504 -0.000143
vn -1.0000 -0.0000 0.0000
vn 0.0000 0.0000 -1.0000
vn 1.0000 0.0000 0.0000
vn 0.0000 -0.0000 1.0000
vn 0.0000 -1.0000 -0.0000
vn 0.0000 1.0000 0.0000
usemtl Material.003
s 1
f 1/1/1 2/2/1 3/3/1 4/4/1
f 4/5/2 3/6/2 5/7/2 6/8/2
f 6/8/3 5/7/3 7/9/3 8/10/3
f 8/10/4 7/9/4 2/2/4 1/1/4
f 4/11/5 6/8/5 8/10/5 1/12/5
f 5/7/6 3/13/6 2/14/6 7/9/6
